<svg width="18" height="17" viewBox="0 0 18 17" fill="none" xmlns="http://www.w3.org/2000/svg">
<g clip-path="url(#clip0_1_24)">
<path d="M16.5 9.90625C16.4167 10.3021 16.1771 10.5 15.7812 10.5H6.625L6.8125 11.5H15.2188C15.4479 11.5 15.6354 11.5938 15.7812 11.7812C15.9271 11.9688 15.9792 12.1771 15.9375 12.4062L15.75 13.1875C16.4167 13.5 16.75 14.0208 16.75 14.75C16.75 15.2292 16.5781 15.6406 16.2344 15.9844C15.8906 16.3281 15.4792 16.5 15 16.5C14.5208 16.5 14.1094 16.3281 13.7656 15.9844C13.4219 15.6406 13.25 15.2292 13.25 14.75C13.25 14.25 13.4271 13.8333 13.7812 13.5H7.21875C7.57292 13.8333 7.75 14.25 7.75 14.75C7.75 15.2292 7.57812 15.6406 7.23438 15.9844C6.89062 16.3281 6.47917 16.5 6 16.5C5.52083 16.5 5.10938 16.3281 4.76562 15.9844C4.42188 15.6406 4.25 15.2292 4.25 14.75C4.25 14.0833 4.54167 13.5729 5.125 13.2188L2.9375 2.5H0.75C0.541667 2.5 0.364583 2.42708 0.21875 2.28125C0.0729167 2.13542 0 1.95833 0 1.75V1.25C0 1.04167 0.0729167 0.864583 0.21875 0.71875C0.364583 0.572917 0.541667 0.5 0.75 0.5H3.96875C4.13542 0.5 4.28646 0.557292 4.42188 0.671875C4.55729 0.786458 4.64583 0.927083 4.6875 1.09375L4.96875 2.5H17.25C17.5 2.5 17.6979 2.59375 17.8438 2.78125C17.9896 2.96875 18.0312 3.17708 17.9688 3.40625L16.5 9.90625Z" fill="#343A40"/>
</g>
<defs>
<clipPath id="clip0_1_24">
<rect width="18" height="16" fill="white" transform="matrix(1 0 0 -1 0 16.5)"/>
</clipPath>
</defs>
</svg>
