<svg width="60" height="62" viewBox="0 0 60 62" fill="none" xmlns="http://www.w3.org/2000/svg">
<path d="M54.375 31.0898C55.9375 31.0898 57.2656 31.6367 58.3594 32.7305C59.4531 33.8242 60 35.1523 60 36.7148V51.7148C60 53.2773 59.4531 54.6055 58.3594 55.6992C57.2656 56.793 55.9375 57.3398 54.375 57.3398H39.375C37.8125 57.3398 36.4844 56.793 35.3906 55.6992C34.2969 54.6055 33.75 53.2773 33.75 51.7148V23.5898C33.75 18.4336 35.5859 14.0195 39.2578 10.3477C42.9297 6.67578 47.3438 4.83984 52.5 4.83984H53.4375C54.2188 4.83984 54.8828 5.11328 55.4297 5.66016C55.9766 6.20703 56.25 6.87109 56.25 7.65234V13.2773C56.25 14.0586 55.9766 14.7227 55.4297 15.2695C54.8828 15.8164 54.2188 16.0898 53.4375 16.0898H52.5C50.4688 16.0898 48.7109 16.832 47.2266 18.3164C45.7422 19.8008 45 21.5586 45 23.5898V31.0898H54.375ZM20.625 31.0898C22.1875 31.0898 23.5156 31.6367 24.6094 32.7305C25.7031 33.8242 26.25 35.1523 26.25 36.7148V51.7148C26.25 53.2773 25.7031 54.6055 24.6094 55.6992C23.5156 56.793 22.1875 57.3398 20.625 57.3398H5.625C4.0625 57.3398 2.73438 56.793 1.64062 55.6992C0.546875 54.6055 0 53.2773 0 51.7148V23.5898C0 18.4336 1.83594 14.0195 5.50781 10.3477C9.17969 6.67578 13.5938 4.83984 18.75 4.83984H19.6875C20.4688 4.83984 21.1328 5.11328 21.6797 5.66016C22.2266 6.20703 22.5 6.87109 22.5 7.65234V13.2773C22.5 14.0586 22.2266 14.7227 21.6797 15.2695C21.1328 15.8164 20.4688 16.0898 19.6875 16.0898H18.75C16.7188 16.0898 14.9609 16.832 13.4766 18.3164C11.9922 19.8008 11.25 21.5586 11.25 23.5898V31.0898H20.625Z" fill="black"/>
</svg>
