<svg width="20" height="20" viewBox="0 0 20 20" fill="none" xmlns="http://www.w3.org/2000/svg">
<g clip-path="url(#clip0_1_17)">
<path d="M19.6602 16.9395C19.8334 17.1126 19.92 17.3229 19.92 17.5703C19.92 17.8177 19.8334 18.028 19.6602 18.2012L18.6212 19.2402C18.448 19.4134 18.2377 19.5 17.9903 19.5C17.7429 19.5 17.5326 19.4134 17.3595 19.2402L13.6485 15.5293C13.4754 15.3561 13.3888 15.1458 13.3888 14.8984V14.3047C12.0033 15.3932 10.42 15.9375 8.63876 15.9375C6.51116 15.9375 4.6928 15.1829 3.18369 13.6738C1.67457 12.1647 0.920013 10.3464 0.920013 8.21875C0.920013 6.09115 1.67457 4.27279 3.18369 2.76367C4.6928 1.25456 6.51116 0.5 8.63876 0.5C10.7664 0.5 12.5847 1.25456 14.0938 2.76367C15.603 4.27279 16.3575 6.09115 16.3575 8.21875C16.3575 10 15.8132 11.5833 14.7247 12.9688H15.3185C15.5658 12.9688 15.7761 13.0553 15.9493 13.2285L19.6602 16.9395ZM5.28036 11.5771C5.28036 11.5771 5.5123 11.8091 5.97617 12.2729C6.44003 12.7368 7.32757 12.9688 8.63876 12.9688C9.94996 12.9688 11.0694 12.5049 11.9972 11.5771C12.9249 10.6494 13.3888 9.52995 13.3888 8.21875C13.3888 6.90755 12.9249 5.78809 11.9972 4.86035C11.0694 3.93262 9.94996 3.46875 8.63876 3.46875C7.32757 3.46875 6.2081 3.93262 5.28036 4.86035C4.35263 5.78809 3.88876 6.90755 3.88876 8.21875C3.88876 9.52995 4.35263 10.6494 5.28036 11.5771Z" fill="white"/>
</g>
<defs>
<clipPath id="clip0_1_17">
<rect width="19" height="19" fill="white" transform="matrix(1 0 0 -1 0.920013 19.5)"/>
</clipPath>
</defs>
</svg>
