<svg width="23" height="23" viewBox="0 0 23 23" fill="none" xmlns="http://www.w3.org/2000/svg">
<g clip-path="url(#clip0_1_13)">
<path d="M8.65348 6.4225C8.65348 6.4225 8.85398 6.222 9.25497 5.82101C9.65597 5.42001 10.4293 5.21951 11.575 5.21951C12.7207 5.21951 13.6946 5.62051 14.4965 6.4225C15.2985 7.22449 15.6995 8.19833 15.6995 9.34403C15.6995 10.4897 15.2985 11.4636 14.4965 12.2656C13.6946 13.0676 12.7207 13.4685 11.575 13.4685C10.4293 13.4685 9.45547 13.0676 8.65348 12.2656C7.85149 11.4636 7.4505 10.4897 7.4505 9.34403C7.4505 8.19833 7.85149 7.22449 8.65348 6.4225ZM10.1142 10.8048C10.1142 10.8048 10.2145 10.905 10.415 11.1055C10.6155 11.306 11.0022 11.4063 11.575 11.4063C12.1479 11.4063 12.6348 11.2058 13.0358 10.8048C13.4368 10.4038 13.6373 9.91688 13.6373 9.34403C13.6373 8.77118 13.4368 8.28426 13.0358 7.88326C12.6348 7.48227 12.1479 7.28177 11.575 7.28177C11.0022 7.28177 10.5152 7.48227 10.1142 7.88326C9.71325 8.28426 9.51276 8.77118 9.51276 9.34403C9.51276 9.91688 9.71325 10.4038 10.1142 10.8048ZM4.03488 4.20987C4.03488 4.20987 4.55403 3.69072 5.59232 2.65243C6.63061 1.61414 8.62484 1.095 11.575 1.095C14.5252 1.095 17.0386 2.13329 19.1151 4.20987C21.1917 6.28645 22.23 8.79982 22.23 11.75C22.23 14.7002 21.1917 17.2136 19.1151 19.2901C17.0386 21.3667 14.5252 22.405 11.575 22.405C8.62484 22.405 6.11146 21.3667 4.03488 19.2901C1.9583 17.2136 0.920013 14.7002 0.920013 11.75C0.920013 8.79982 1.9583 6.28645 4.03488 4.20987ZM5.98973 18.2805C7.59371 19.6553 9.45547 20.3427 11.575 20.3427C13.6946 20.3427 15.5563 19.6553 17.1603 18.2805C16.4729 17.1921 15.4704 16.6192 14.1528 16.5619C13.2936 16.8484 12.4343 16.9916 11.575 16.9916C10.7444 16.9916 9.88511 16.8484 8.99719 16.5619C7.70828 16.5906 6.70579 17.1634 5.98973 18.2805ZM18.5781 16.7338C19.6379 15.2444 20.1678 13.5831 20.1678 11.75C20.1678 9.37267 19.33 7.34622 17.6544 5.67063C15.9788 3.99505 13.9523 3.15726 11.575 3.15726C9.19769 3.15726 7.17123 3.99505 5.49565 5.67063C3.82006 7.34622 2.98227 9.37267 2.98227 11.75C2.98227 13.5831 3.51216 15.2444 4.57193 16.7338C5.74627 15.2444 7.25 14.4997 9.08312 14.4997C9.16905 14.4997 9.47695 14.5713 10.0068 14.7145C10.5367 14.8577 11.0594 14.9293 11.575 14.9293C12.0906 14.9293 12.6133 14.8577 13.1432 14.7145C13.6731 14.5713 13.981 14.4997 14.0669 14.4997C15.9 14.4997 17.4038 15.2444 18.5781 16.7338Z" fill="white"/>
</g>
<defs>
<clipPath id="clip0_1_13">
<rect width="21.31" height="22" fill="white" transform="matrix(1 0 0 -1 0.920013 22.75)"/>
</clipPath>
</defs>
</svg>
