<svg width="17" height="17" viewBox="0 0 17 17" fill="none" xmlns="http://www.w3.org/2000/svg">
<g clip-path="url(#clip0_1_526)">
<path d="M16.5125 5.02721L15.075 6.46471C14.8875 6.65221 14.7104 6.65221 14.5438 6.46471L11.075 2.99596C10.8875 2.82929 10.8875 2.65221 11.075 2.46471L12.5125 1.02721C12.8042 0.735543 13.1583 0.58971 13.575 0.58971C13.9917 0.58971 14.3458 0.735543 14.6375 1.02721L16.5125 2.90221C16.8042 3.19388 16.95 3.54804 16.95 3.96471C16.95 4.38138 16.8042 4.73554 16.5125 5.02721ZM9.825 3.71471C10.0125 3.52721 10.1896 3.52721 10.3563 3.71471L13.825 7.18346C14.0125 7.35013 14.0125 7.52721 13.825 7.71471L5.6375 15.9022L1.825 16.5897C1.575 16.6314 1.35625 16.5585 1.16875 16.371C0.98125 16.1835 0.908334 15.9647 0.95 15.7147L1.6375 11.9022L9.825 3.71471ZM4.825 10.5897C4.61667 10.798 4.61667 11.0064 4.825 11.2147C5.03333 11.423 5.24167 11.423 5.45 11.2147L10.2625 6.40221C10.4708 6.19388 10.4708 5.98554 10.2625 5.77721C10.0542 5.56888 9.84583 5.56888 9.6375 5.77721L4.825 10.5897ZM3.7 13.8397V12.3397H2.575L2.2 14.3397L3.2 15.3397L5.2 14.9647V13.8397H3.7Z" fill="black"/>
</g>
<defs>
<clipPath id="clip0_1_526">
<rect width="16" height="16" fill="white" transform="matrix(1 0 0 -1 0.949997 16.5898)"/>
</clipPath>
</defs>
</svg>
