<svg width="23" height="31" viewBox="0 0 23 31" fill="none" xmlns="http://www.w3.org/2000/svg">
<g clip-path="url(#clip0_1_598)">
<path d="M10.0781 29.5537C9.14062 28.1865 8.07617 26.6436 6.88477 24.9248C5.69336 23.2061 4.84375 21.9951 4.33594 21.292C3.82812 20.5889 3.24219 19.7197 2.57812 18.6846C1.91406 17.6494 1.47461 16.917 1.25977 16.4873C1.04492 16.0576 0.810547 15.5107 0.556641 14.8467C0.302734 14.1826 0.146484 13.6064 0.0878906 13.1182C0.0292969 12.6299 0 12.0537 0 11.3896C0 8.26465 1.09375 5.6084 3.28125 3.4209C5.46875 1.2334 8.125 0.139648 11.25 0.139648C14.375 0.139648 17.0312 1.2334 19.2188 3.4209C21.4062 5.6084 22.5 8.26465 22.5 11.3896C22.5 12.0537 22.4707 12.6299 22.4121 13.1182C22.3535 13.6064 22.1973 14.1826 21.9434 14.8467C21.6895 15.5107 21.4551 16.0576 21.2402 16.4873C21.0254 16.917 20.5859 17.6494 19.9219 18.6846C19.2578 19.7197 18.6719 20.5889 18.1641 21.292C17.6562 21.9951 16.8066 23.2061 15.6152 24.9248C14.4238 26.6436 13.3594 28.1865 12.4219 29.5537C12.1484 29.9443 11.7578 30.1396 11.25 30.1396C10.7422 30.1396 10.3516 29.9443 10.0781 29.5537ZM7.93945 14.7002C7.93945 14.7002 8.16895 14.9297 8.62793 15.3887C9.08691 15.8477 9.96094 16.0771 11.25 16.0771C12.5391 16.0771 13.6426 15.6182 14.5605 14.7002C15.4785 13.7822 15.9375 12.6787 15.9375 11.3896C15.9375 10.1006 15.4785 8.99707 14.5605 8.0791C13.6426 7.16113 12.5391 6.70215 11.25 6.70215C9.96094 6.70215 8.85742 7.16113 7.93945 8.0791C7.02148 8.99707 6.5625 10.1006 6.5625 11.3896C6.5625 12.6787 7.02148 13.7822 7.93945 14.7002Z" fill="#929090"/>
</g>
<defs>
<clipPath id="clip0_1_598">
<rect width="22.5" height="30" fill="white" transform="matrix(1 0 0 -1 0 30.1396)"/>
</clipPath>
</defs>
</svg>
