<svg width="82" height="66" viewBox="0 0 82 66" fill="none" xmlns="http://www.w3.org/2000/svg">
<g clip-path="url(#clip0_1_75)">
<path d="M62.2697 31.5808C62.2697 31.5808 62.7669 31.0836 63.7614 30.0891C64.7558 29.0946 66.6495 28.5974 69.4425 28.5974C72.2355 28.5974 74.6264 29.5919 76.6154 31.5808C78.6043 33.5697 79.5988 35.9607 79.5988 38.7537C79.5988 41.5466 78.6043 43.9376 76.6154 45.9265C74.6264 47.9154 72.2355 48.9099 69.4425 48.9099C66.6495 48.9099 64.2586 47.9154 62.2697 45.9265C60.2807 43.9376 59.2863 41.5466 59.2863 38.7537C59.2863 35.9607 60.2807 33.5697 62.2697 31.5808ZM65.1261 43.0701C65.1261 43.0701 65.4223 43.3663 66.0148 43.9587C66.6072 44.5512 67.7498 44.8474 69.4425 44.8474C71.1352 44.8474 72.574 44.255 73.7589 43.0701C74.9438 41.8852 75.5363 40.4464 75.5363 38.7537C75.5363 37.061 74.9438 35.6222 73.7589 34.4373C72.574 33.2524 71.1352 32.6599 69.4425 32.6599C67.7498 32.6599 66.311 33.2524 65.1261 34.4373C63.9412 35.6222 63.3488 37.061 63.3488 38.7537C63.3488 40.4464 63.9412 41.8852 65.1261 43.0701ZM33.8322 45.9265C33.8322 45.9265 33.3349 45.4293 32.3405 44.4348C31.346 43.4403 30.8488 41.5466 30.8488 38.7537C30.8488 35.9607 31.8432 33.5697 33.8322 31.5808C35.8211 29.5919 38.212 28.5974 41.005 28.5974C43.798 28.5974 46.1889 29.5919 48.1779 31.5808C50.1668 33.5697 51.1613 35.9607 51.1613 38.7537C51.1613 41.5466 50.1668 43.9376 48.1779 45.9265C46.1889 47.9154 43.798 48.9099 41.005 48.9099C38.212 48.9099 35.8211 47.9154 33.8322 45.9265ZM45.3214 43.0701C45.3214 43.0701 45.6176 42.7738 46.2101 42.1814C46.8025 41.5889 47.0988 40.4464 47.0988 38.7537C47.0988 37.061 46.5063 35.6222 45.3214 34.4373C44.1365 33.2524 42.6977 32.6599 41.005 32.6599C39.3123 32.6599 37.8735 33.2524 36.6886 34.4373C35.5037 35.6222 34.9113 37.061 34.9113 38.7537C34.9113 40.4464 35.5037 41.8852 36.6886 43.0701C37.8735 44.255 39.3123 44.8474 41.005 44.8474C42.6977 44.8474 44.1365 44.255 45.3214 43.0701ZM19.7404 45.9265C19.7404 45.9265 19.2431 46.4237 18.2487 47.4182C17.2542 48.4127 15.3605 48.9099 12.5675 48.9099C9.77454 48.9099 7.38359 47.9154 5.39465 45.9265C3.40572 43.9376 2.41125 41.5466 2.41125 38.7537C2.41125 35.9607 3.40572 33.5697 5.39465 31.5808C7.38359 29.5919 9.77454 28.5974 12.5675 28.5974C15.3605 28.5974 17.7514 29.5919 19.7404 31.5808C21.7293 33.5697 22.7238 35.9607 22.7238 38.7537C22.7238 41.5466 21.7293 43.9376 19.7404 45.9265ZM16.8839 34.4373C16.8839 34.4373 16.5877 34.141 15.9952 33.5486C15.4028 32.9561 14.2602 32.6599 12.5675 32.6599C10.8748 32.6599 9.43599 33.2524 8.2511 34.4373C7.0662 35.6222 6.47375 37.061 6.47375 38.7537C6.47375 40.4464 7.0662 41.8852 8.2511 43.0701C9.43599 44.255 10.8748 44.8474 12.5675 44.8474C14.2602 44.8474 15.699 44.255 16.8839 43.0701C18.0688 41.8852 18.6613 40.4464 18.6613 38.7537C18.6613 37.061 18.0688 35.6222 16.8839 34.4373ZM71.9816 52.9724C74.6053 52.9724 76.8693 53.9669 78.7736 55.9558C80.6779 57.9447 81.63 60.3357 81.63 63.1287C81.63 63.7211 81.4396 64.2078 81.0587 64.5886C80.6779 64.9695 80.1912 65.1599 79.5988 65.1599C79.0063 65.1599 78.5197 64.9695 78.1388 64.5886C77.7579 64.2078 77.5675 63.7211 77.5675 63.1287C77.5675 61.436 77.0174 59.9972 75.9171 58.8123C74.8169 57.6274 73.505 57.0349 71.9816 57.0349H66.9034C65.38 57.0349 64.0682 57.6274 62.9679 58.8123C61.8676 59.9972 61.3175 61.436 61.3175 63.1287C61.3175 63.7211 61.1271 64.2078 60.7462 64.5886C60.3654 64.9695 59.8787 65.1599 59.2863 65.1599C58.6938 65.1599 58.2072 64.9695 57.8263 64.5886C57.4454 64.2078 57.255 63.7211 57.255 63.1287C57.255 60.3357 58.2072 57.9447 60.1115 55.9558C62.0157 53.9669 64.2797 52.9724 66.9034 52.9724H71.9816ZM15.1066 52.9724C17.7303 52.9724 19.9943 53.9669 21.8986 55.9558C23.8029 57.9447 24.755 60.3357 24.755 63.1287C24.755 63.7211 24.5646 64.2078 24.1837 64.5886C23.8029 64.9695 23.3162 65.1599 22.7238 65.1599C22.1313 65.1599 21.6447 64.9695 21.2638 64.5886C20.8829 64.2078 20.6925 63.7211 20.6925 63.1287C20.6925 61.436 20.1424 59.9972 19.0421 58.8123C17.9419 57.6274 16.63 57.0349 15.1066 57.0349H10.0284C8.505 57.0349 7.19316 57.6274 6.0929 58.8123C4.99264 59.9972 4.4425 61.436 4.4425 63.1287C4.4425 63.7211 4.25208 64.2078 3.87122 64.5886C3.49036 64.9695 3.0037 65.1599 2.41125 65.1599C1.81881 65.1599 1.33215 64.9695 0.951294 64.5886C0.570435 64.2078 0.380005 63.7211 0.380005 63.1287C0.380005 60.3357 1.33215 57.9447 3.23645 55.9558C5.14075 53.9669 7.40474 52.9724 10.0284 52.9724H15.1066ZM43.5441 52.9724C46.1678 52.9724 48.4318 53.9669 50.3361 55.9558C52.2404 57.9447 53.1925 60.3357 53.1925 63.1287C53.1925 63.7211 53.0021 64.2078 52.6212 64.5886C52.2404 64.9695 51.7537 65.1599 51.1613 65.1599C50.5688 65.1599 50.0822 64.9695 49.7013 64.5886C49.3204 64.2078 49.13 63.7211 49.13 63.1287C49.13 61.436 48.5799 59.9972 47.4796 58.8123C46.3794 57.6274 45.0675 57.0349 43.5441 57.0349H38.4659C36.9425 57.0349 35.6307 57.6274 34.5304 58.8123C33.4301 59.9972 32.88 61.436 32.88 63.1287C32.88 63.7211 32.6896 64.2078 32.3087 64.5886C31.9279 64.9695 31.4412 65.1599 30.8488 65.1599C30.2563 65.1599 29.7697 64.9695 29.3888 64.5886C29.0079 64.2078 28.8175 63.7211 28.8175 63.1287C28.8175 60.3357 29.7697 57.9447 31.674 55.9558C33.5782 53.9669 35.8422 52.9724 38.4659 52.9724H43.5441ZM8.505 6.25366V25.1697C6.98157 25.6775 5.6274 26.3123 4.4425 27.074V6.25366C4.4425 4.56095 5.03495 3.12215 6.21985 1.93726C7.40474 0.75236 8.84355 0.159912 10.5363 0.159912H71.4738C73.1665 0.159912 74.6053 0.75236 75.7902 1.93726C76.9751 3.12215 77.5675 4.56095 77.5675 6.25366V27.074C76.3826 26.3123 75.0284 25.6775 73.505 25.1697V6.25366C73.505 5.66121 73.3146 5.17456 72.9337 4.7937C72.5529 4.41284 72.0662 4.22241 71.4738 4.22241H10.5363C9.94381 4.22241 9.45715 4.41284 9.07629 4.7937C8.69543 5.17456 8.505 5.66121 8.505 6.25366Z" fill="#0402A7"/>
</g>
<defs>
<clipPath id="clip0_1_75">
<rect width="81.25" height="65" fill="white" transform="matrix(1 0 0 -1 0.380005 65.1599)"/>
</clipPath>
</defs>
</svg>
