<svg width="82" height="66" viewBox="0 0 82 66" fill="none" xmlns="http://www.w3.org/2000/svg">
<g clip-path="url(#clip0_1_93)">
<path d="M34.1495 35.4529C33.7264 35.8761 33.2609 35.8761 32.7531 35.4529L24.6281 27.3279C24.1202 26.8201 24.1202 26.3123 24.6281 25.8044L32.7531 17.6794C33.2609 17.2563 33.7264 17.2563 34.1495 17.6794L35.673 19.2029C36.0962 19.6261 36.0962 20.0916 35.673 20.5994L29.7062 26.5662L35.673 32.533C36.0962 33.0408 36.0962 33.5063 35.673 33.9294L34.1495 35.4529ZM46.337 33.9294C46.1678 33.7602 46.0831 33.5274 46.0831 33.2312C46.0831 32.935 46.1678 32.7022 46.337 32.533L52.3038 26.5662L46.337 20.5994C45.9139 20.0916 45.9139 19.6261 46.337 19.2029L47.8605 17.6794C48.2837 17.2563 48.7491 17.2563 49.257 17.6794L57.382 25.8044C57.8898 26.3123 57.8898 26.8201 57.382 27.3279L49.257 35.4529C48.7491 35.8761 48.2837 35.8761 47.8605 35.4529L46.337 33.9294ZM79.5988 46.8787C80.1912 46.8787 80.6779 47.0691 81.0587 47.45C81.4396 47.8308 81.63 48.3175 81.63 48.9099V55.0037C81.63 57.7966 80.6355 60.1876 78.6466 62.1765C76.6577 64.1654 74.2667 65.1599 71.4738 65.1599H10.5363C7.74329 65.1599 5.35234 64.1654 3.3634 62.1765C1.37447 60.1876 0.380005 57.7966 0.380005 55.0037V48.9099C0.380005 48.3175 0.570435 47.8308 0.951294 47.45C1.33215 47.0691 1.81881 46.8787 2.41125 46.8787H8.505V12.3474C8.505 10.1469 9.30904 8.24259 10.9171 6.63452C12.5252 5.02645 14.4295 4.22241 16.63 4.22241H65.38C67.5805 4.22241 69.4848 5.02645 71.0929 6.63452C72.701 8.24259 73.505 10.1469 73.505 12.3474V46.8787H79.5988ZM12.5675 12.3474V46.8787H31.9913C32.4991 46.8787 32.8377 47.1749 33.007 47.7673C33.1762 48.6983 33.6417 49.46 34.4034 50.0525C35.1652 50.6449 36.0115 50.9412 36.9425 50.9412H45.0675C45.9985 50.9412 46.8448 50.6449 47.6066 50.0525C48.3683 49.46 48.8338 48.6983 49.0031 47.7673C49.1723 47.1749 49.5109 46.8787 50.0187 46.8787H69.4425V12.3474C69.4425 11.2472 69.0405 10.295 68.2365 9.49097C67.4324 8.68693 66.4803 8.28491 65.38 8.28491H16.63C15.5297 8.28491 14.5776 8.68693 13.7736 9.49097C12.9695 10.295 12.5675 11.2472 12.5675 12.3474ZM77.5675 55.0037V50.9412H52.8116C52.3885 52.1261 51.6479 53.0994 50.59 53.8611C49.532 54.6228 48.3683 55.0037 47.0988 55.0037H34.9113C33.6417 55.0037 32.478 54.6228 31.42 53.8611C30.3621 53.0994 29.6215 52.1261 29.1984 50.9412H4.4425V55.0037C4.4425 56.6964 5.03495 58.1352 6.21985 59.3201C7.40474 60.505 8.84355 61.0974 10.5363 61.0974H71.4738C73.1665 61.0974 74.6053 60.505 75.7902 59.3201C76.9751 58.1352 77.5675 56.6964 77.5675 55.0037Z" fill="#0402A7"/>
</g>
<defs>
<clipPath id="clip0_1_93">
<rect width="81.25" height="65" fill="white" transform="matrix(1 0 0 -1 0.380005 65.1599)"/>
</clipPath>
</defs>
</svg>
