<svg width="82" height="66" viewBox="0 0 82 66" fill="none" xmlns="http://www.w3.org/2000/svg">
<g clip-path="url(#clip0_1_87)">
<path d="M36.9425 34.8181C35.3344 36.003 33.9803 37.3149 32.88 38.7537V9.80835C32.88 8.79272 32.6261 7.86174 32.1183 7.01538C31.6105 6.16903 30.9334 5.49194 30.087 4.98413C29.2407 4.47632 28.3097 4.22241 27.2941 4.22241C26.3631 4.22241 25.5379 4.37052 24.8185 4.66675C24.0991 4.96297 23.5278 5.42847 23.1046 6.06323C22.6814 6.698 22.3641 7.29045 22.1525 7.84058C21.9409 8.39071 21.7081 9.13127 21.4542 10.0623L19.8038 9.9353C18.1958 9.9353 16.8204 10.4854 15.6779 11.5857C14.5353 12.686 13.964 13.9978 13.964 15.5212C13.964 15.8598 14.1756 16.8331 14.5988 18.4412C13.2446 18.949 12.1443 19.4779 11.298 20.0281C10.4516 20.5782 9.73222 21.3611 9.13977 22.3767C8.54732 23.3923 8.2511 24.6195 8.2511 26.0583C8.2511 27.1586 8.80123 28.809 9.90149 31.0095C8.71659 31.6866 7.82792 32.2367 7.23547 32.6599C6.64303 33.0831 6.02942 33.8025 5.39465 34.8181C4.75989 35.8337 4.4425 37.0186 4.4425 38.3728C4.4425 40.4041 4.99264 41.9698 6.0929 43.0701C7.19316 44.1703 8.71659 45.1013 10.6632 45.863C10.3247 47.4711 10.1554 48.4444 10.1554 48.783C10.1554 50.6449 10.8113 52.2107 12.1232 53.4802C13.435 54.7498 14.9796 55.3845 16.757 55.3845C17.0109 55.3845 17.9419 55.2576 19.5499 55.0037C20.227 56.9503 21.0522 58.4526 22.0255 59.5105C22.9988 60.5684 24.4165 61.0974 26.2784 61.0974C27.9712 61.0974 29.4523 60.5473 30.7218 59.447C31.2296 60.6319 31.9067 61.7745 32.7531 62.8748C30.8064 64.3982 28.6482 65.1599 26.2784 65.1599C24.3318 65.1599 22.5122 64.6521 20.8195 63.6365C19.1267 62.6208 17.8149 61.2244 16.8839 59.447C13.837 59.5317 11.2557 58.4737 9.13977 56.2732C7.02389 54.0727 6.00826 51.449 6.0929 48.4021C4.31555 47.3018 2.91907 45.863 1.90344 44.0857C0.887817 42.3083 0.380005 40.4041 0.380005 38.3728C0.380005 34.7335 1.81881 31.7289 4.69641 29.3591C3.76542 26.3123 3.95585 23.6039 5.2677 21.2341C6.57955 18.8643 8.12415 17.1293 9.90149 16.0291C9.73222 13.5746 10.4728 11.3529 12.1232 9.36401C13.7736 7.37508 15.8683 6.25366 18.4073 5.99976C19.1691 4.22241 20.354 2.80477 21.962 1.74683C23.5701 0.688884 25.3475 0.159912 27.2941 0.159912C30.4256 0.159912 32.9646 1.42944 34.9113 3.96851C36.8579 1.42944 39.3969 0.159912 42.5284 0.159912C44.4751 0.159912 46.2524 0.688884 47.8605 1.74683C49.4685 2.80477 50.6534 4.22241 51.4152 5.99976C53.9542 6.25366 56.049 7.37508 57.6993 9.36401C59.3497 11.3529 60.0903 13.5746 59.921 16.0291C62.4601 17.4679 64.1951 19.6684 65.1261 22.6306C64.6183 22.6306 64.1528 22.6729 63.7296 22.7576C63.2218 22.9268 62.7563 23.0961 62.3331 23.2654C62.3331 23.2654 61.9946 23.477 61.3175 23.9001C60.6404 21.615 58.6092 19.7953 55.2238 18.4412C55.6469 16.8331 55.8585 15.8598 55.8585 15.5212C55.8585 14.5056 55.6046 13.5746 55.0968 12.7283C54.589 11.8819 53.8907 11.2048 53.0021 10.697C52.1134 10.1892 51.1189 9.9353 50.0187 9.9353L48.3683 10.0623C47.9451 8.20028 47.3103 6.76147 46.464 5.74585C45.6176 4.73022 44.3058 4.22241 42.5284 4.22241C41.005 4.22241 39.6932 4.77254 38.5929 5.8728C37.4926 6.97306 36.9425 8.28491 36.9425 9.80835V34.8181ZM80.3605 39.8962C81.2068 40.7426 81.63 41.7582 81.63 42.9431C81.63 44.128 81.2068 45.1013 80.3605 45.863L68.173 58.0505C66.9034 59.3201 65.4646 59.574 63.8566 58.8123C62.1639 58.1352 61.3175 56.8656 61.3175 55.0037V51.0681H51.1613C48.9607 51.0681 47.3527 51.7875 46.337 53.2263C45.66 54.1573 45.2579 55.4057 45.131 56.9714C45.004 58.5372 45.1098 59.6586 45.4484 60.3357C45.8715 61.5206 45.7234 62.6208 45.004 63.6365C44.2846 64.6521 43.3325 65.1599 42.1476 65.1599C41.3859 65.1599 40.7088 64.9483 40.1163 64.5251C37.4926 62.7478 35.546 60.378 34.2765 57.4158C33.007 54.4535 32.6261 51.3643 33.1339 48.1482C33.5571 45.863 34.4034 43.7895 35.673 41.9275C36.9425 40.0655 38.5294 38.5209 40.4337 37.2937C42.338 36.0665 44.4327 35.2836 46.7179 34.9451C47.3103 34.8604 48.0721 34.8181 49.0031 34.8181H61.3175V30.8826C61.3175 29.0206 62.1639 27.7087 63.8566 26.947C65.4646 26.2699 66.9034 26.5662 68.173 27.8357L80.3605 39.8962ZM65.38 55.0037L77.5675 42.8162L65.38 30.7556V38.8806H49.13C48.199 38.8806 47.5642 38.9229 47.2257 39.0076C44.6866 39.3461 42.465 40.4464 40.5607 42.3083C38.6564 44.1703 37.4926 46.3708 37.0695 48.9099C36.7309 51.0258 36.9425 53.0994 37.7042 55.1306C38.4659 57.1619 39.6508 58.8969 41.2589 60.3357C40.5818 56.6117 41.1743 53.4379 43.0363 50.8142C44.8982 48.2751 47.6066 47.0056 51.1613 47.0056H65.38V55.0037Z" fill="#0402A7"/>
</g>
<defs>
<clipPath id="clip0_1_87">
<rect width="81.25" height="65" fill="white" transform="matrix(1 0 0 -1 0.380005 65.1599)"/>
</clipPath>
</defs>
</svg>
