<svg width="48" height="49" viewBox="0 0 48 49" fill="none" xmlns="http://www.w3.org/2000/svg">
<path d="M40.4531 41.043C40.4531 41.043 39.3203 42.1758 37.0547 44.4414C34.7891 46.707 30.4375 47.8398 24 47.8398C17.5625 47.8398 12.0781 45.5742 7.54688 41.043C3.01562 36.5117 0.75 31.0273 0.75 24.5898C0.75 18.1523 3.01562 12.668 7.54688 8.13672C12.0781 3.60547 17.5625 1.33984 24 1.33984C30.4375 1.33984 35.9219 3.60547 40.4531 8.13672C44.9844 12.668 47.25 18.1523 47.25 24.5898C47.25 31.0273 44.9844 36.5117 40.4531 41.043ZM13.3125 26.1836L26.0625 38.8398C26.5 39.3398 27.0312 39.5898 27.6562 39.5898C28.2812 39.5898 28.8125 39.3398 29.25 38.8398L30.75 37.3398C31.25 36.8398 31.5 36.293 31.5 35.6992C31.5 35.1055 31.25 34.5898 30.75 34.1523L21.2812 24.5898L30.75 15.0273C31.25 14.5898 31.5 14.0586 31.5 13.4336C31.5 12.8086 31.25 12.2773 30.75 11.8398L29.25 10.3398C28.75 9.83984 28.2031 9.58984 27.6094 9.58984C27.0156 9.58984 26.5 9.83984 26.0625 10.3398L13.3125 22.9961C12.875 23.4336 12.6562 23.9648 12.6562 24.5898C12.6562 25.2148 12.875 25.7461 13.3125 26.1836Z" fill="black"/>
</svg>
