<svg width="48" height="49" viewBox="0 0 48 49" fill="none" xmlns="http://www.w3.org/2000/svg">
<path d="M7.54688 8.13672C7.54688 8.13672 8.67969 7.00391 10.9453 4.73828C13.2109 2.47266 17.5625 1.33984 24 1.33984C30.4375 1.33984 35.9219 3.60547 40.4531 8.13672C44.9844 12.668 47.25 18.1523 47.25 24.5898C47.25 31.0273 44.9844 36.5117 40.4531 41.043C35.9219 45.5742 30.4375 47.8398 24 47.8398C17.5625 47.8398 12.0781 45.5742 7.54688 41.043C3.01562 36.5117 0.75 31.0273 0.75 24.5898C0.75 18.1523 3.01562 12.668 7.54688 8.13672ZM34.6875 22.9961L21.9375 10.3398C21.5 9.83984 20.9688 9.58984 20.3438 9.58984C19.7188 9.58984 19.1875 9.83984 18.75 10.3398L17.25 11.8398C16.75 12.3398 16.5 12.8867 16.5 13.4805C16.5 14.0742 16.75 14.5898 17.25 15.0273L26.7188 24.5898L17.25 34.1523C16.75 34.5898 16.5 35.1211 16.5 35.7461C16.5 36.3711 16.75 36.9023 17.25 37.3398L18.75 38.8398C19.25 39.3398 19.7969 39.5898 20.3906 39.5898C20.9844 39.5898 21.5 39.3398 21.9375 38.8398L34.6875 26.1836C35.125 25.7461 35.3438 25.2148 35.3438 24.5898C35.3438 23.9648 35.125 23.4336 34.6875 22.9961Z" fill="black"/>
</svg>
