<svg width="74" height="66" viewBox="0 0 74 66" fill="none" xmlns="http://www.w3.org/2000/svg">
<g clip-path="url(#clip0_1_81)">
<path d="M47.4087 17.8064C48.0011 17.891 48.3819 18.2084 48.5512 18.7585C48.7204 19.3087 48.5935 19.7953 48.1704 20.2185L43.6007 24.6619L44.7431 31.0095C44.8277 31.602 44.6373 32.0675 44.1719 32.406C43.7064 32.7445 43.2199 32.7869 42.7121 32.533L37 29.4861L31.2879 32.533C30.7802 32.7869 30.2936 32.7445 29.8281 32.406C29.3627 32.0675 29.1723 31.602 29.2569 31.0095L30.3993 24.6619L25.7027 20.2185C25.2796 19.7953 25.1738 19.3087 25.3854 18.7585C25.5969 18.2084 25.9566 17.891 26.4643 17.8064L32.9381 16.9177L35.7307 11.0779C35.9845 10.5701 36.4076 10.3162 37 10.3162C37.5924 10.3162 38.0155 10.5701 38.2694 11.0779L41.062 16.9177L47.4087 17.8064ZM39.7926 23.3923L42.5852 20.7263L38.7771 20.0916L37 16.5369L35.2229 20.0916L31.4148 20.7263L34.2074 23.3923L33.4458 27.3279L37 25.5505L40.4273 27.3279L39.7926 23.3923ZM57.3097 8.28491H72.0343C73.0498 8.28491 73.5575 8.79272 73.5575 9.80835V17.6794C73.5575 21.7419 71.59 25.6775 67.655 29.4861C63.72 33.2947 58.8753 35.6222 53.1209 36.4685C51.4284 40.1078 49.3128 42.9431 46.7741 44.9744C44.2353 47.0056 41.6543 48.2751 39.031 48.783V61.0974H49.9475C50.8783 61.0974 51.6611 61.4148 52.2958 62.0496C52.9304 62.6843 53.2478 63.4672 53.2478 64.3982C53.2478 64.906 52.9939 65.1599 52.4862 65.1599H21.5138C21.0061 65.1599 20.7522 64.906 20.7522 64.3982C20.7522 63.4672 21.0696 62.6843 21.7042 62.0496C22.3389 61.4148 23.1217 61.0974 24.0526 61.0974H34.969V48.783C33.2766 48.4444 31.6264 47.8097 30.0185 46.8787C28.4107 45.9477 26.7817 44.5935 25.1315 42.8162C23.4813 41.0388 22.0639 38.9229 20.8792 36.4685C15.1247 35.6222 10.28 33.2947 6.34502 29.4861C2.41001 25.6775 0.442505 21.7419 0.442505 17.6794V9.80835C0.442505 8.79272 0.950248 8.28491 1.96573 8.28491H16.6903V1.68335C16.6903 0.667725 17.198 0.159912 18.2135 0.159912H55.7865C56.802 0.159912 57.3097 0.667725 57.3097 1.68335V8.28491ZM4.50445 17.6794C4.50445 20.3878 5.87959 23.1596 8.62986 25.9949C11.3801 28.8302 14.8286 30.7979 18.9751 31.8982C17.4519 27.074 16.6903 21.5727 16.6903 15.3943V12.3474H4.50445V17.6794ZM25.4489 36.2146C25.4489 36.2146 26.2316 37.6534 27.7972 40.531C29.3627 43.4086 32.4303 44.8474 37 44.8474C41.5697 44.8474 45.4201 41.9698 48.5512 36.2146C51.6822 30.4594 53.2478 23.5193 53.2478 15.3943V4.22241H20.7522V15.3943C20.7522 23.5193 22.3178 30.4594 25.4489 36.2146ZM69.4956 17.6794V12.3474H57.3097V15.3943C57.3097 21.5727 56.5481 27.074 55.0249 31.8982C59.1715 30.7979 62.6199 28.8302 65.3702 25.9949C68.1204 23.1596 69.4956 20.3878 69.4956 17.6794Z" fill="#0402A7"/>
</g>
<defs>
<clipPath id="clip0_1_81">
<rect width="73.12" height="65" fill="white" transform="matrix(1 0 0 -1 0.440002 65.1599)"/>
</clipPath>
</defs>
</svg>
