<svg width="20" height="17" viewBox="0 0 20 17" fill="none" xmlns="http://www.w3.org/2000/svg">
<g clip-path="url(#clip0_1_27)">
<path d="M19.5 7C19.6458 7 19.7656 7.04688 19.8594 7.14062C19.9531 7.23438 20 7.35417 20 7.5V8.5C20 8.64583 19.9531 8.76562 19.8594 8.85938C19.7656 8.95312 19.6458 9 19.5 9H17.5V11C17.5 11.1458 17.4531 11.2656 17.3594 11.3594C17.2656 11.4531 17.1458 11.5 17 11.5H16C15.8542 11.5 15.7344 11.4531 15.6406 11.3594C15.5469 11.2656 15.5 11.1458 15.5 11V9H13.5C13.3542 9 13.2344 8.95312 13.1406 8.85938C13.0469 8.76562 13 8.64583 13 8.5V7.5C13 7.35417 13.0469 7.23438 13.1406 7.14062C13.2344 7.04688 13.3542 7 13.5 7H15.5V5C15.5 4.85417 15.5469 4.73438 15.6406 4.64062C15.7344 4.54688 15.8542 4.5 16 4.5H17C17.1458 4.5 17.2656 4.54688 17.3594 4.64062C17.4531 4.73438 17.5 4.85417 17.5 5V7H19.5ZM9.82812 7.32812C9.82812 7.32812 9.63281 7.52344 9.24219 7.91406C8.85156 8.30469 8.10417 8.5 7 8.5C5.89583 8.5 4.95312 8.10938 4.17188 7.32812C3.39062 6.54688 3 5.60417 3 4.5C3 3.39583 3.39062 2.45312 4.17188 1.67188C4.95312 0.890625 5.89583 0.5 7 0.5C8.10417 0.5 9.04688 0.890625 9.82812 1.67188C10.6094 2.45312 11 3.39583 11 4.5C11 5.60417 10.6094 6.54688 9.82812 7.32812ZM9.8125 9.5C10.9583 9.5 11.9427 9.91146 12.7656 10.7344C13.5885 11.5573 14 12.5417 14 13.6875V15C14 15.4167 13.8542 15.7708 13.5625 16.0625C13.2708 16.3542 12.9167 16.5 12.5 16.5H1.5C1.08333 16.5 0.729167 16.3542 0.4375 16.0625C0.145833 15.7708 0 15.4167 0 15V13.6875C0 12.5417 0.411458 11.5573 1.23438 10.7344C2.05729 9.91146 3.04167 9.5 4.1875 9.5H4.71875C5.44792 9.83333 6.20833 10 7 10C7.79167 10 8.55208 9.83333 9.28125 9.5H9.8125Z" fill="#343A40"/>
</g>
<defs>
<clipPath id="clip0_1_27">
<rect width="20" height="16" fill="white" transform="matrix(1 0 0 -1 0 16.5)"/>
</clipPath>
</defs>
</svg>
